# xmcd
#
# Track frame offsets: 
#        150
#        21925
#        46626
#        67373
#        85783
#        117715
#        140319
#        168494
#        184040
#        206087
#        243043
#        275610
#        306629
#
# Disc length: 4586 seconds
#
# Revision: 0
# Processed by: cddbd v1.5.2PL0 Copyright (c) Steve Scherf et al.
# Submitted via: ExactAudioCopy v0.99pb4
#
DISCID=c011e80d
DTITLE=Too Slim and The Taildraggers - Time To Live
DYEAR=2009
DGENRE=Blues
TTITLE0=Snakehead Soup
TTITLE1=Mississippi Moon
TTITLE2=Missed That Train
TTITLE3=Oven Burnin' Woman
TTITLE4=That's Alright
TTITLE5=Flatbed Flathead
TTITLE6=Givers And Takers
TTITLE7=Baby Likes To Ride
TTITLE8=Big Barn Boogie
TTITLE9=Potent 8
TTITLE10=Wish I WAs Fishin'
TTITLE11=You Gonna Wreck My Life
TTITLE12=Rumble El Rauncho Grundge
EXTD=
EXTT0=
EXTT1=
EXTT2=
EXTT3=
EXTT4=
EXTT5=
EXTT6=
EXTT7=
EXTT8=
EXTT9=
EXTT10=
EXTT11=
EXTT12=
PLAYORDER=
